<?xml version="1.0" encoding="UTF-8" standalone="no"?>
<!DOCTYPE svg PUBLIC "-//W3C//DTD SVG 1.1//EN" "http://www.w3.org/Graphics/SVG/1.1/DTD/svg11.dtd">
<svg width="100%" height="100%" viewBox="0 0 120 120" version="1.1" xmlns="http://www.w3.org/2000/svg" xmlns:xlink="http://www.w3.org/1999/xlink" xml:space="preserve" xmlns:serif="http://www.serif.com/" style="fill-rule:evenodd;clip-rule:evenodd;stroke-linejoin:round;stroke-miterlimit:2;">
    <path d="M9.124,19.157C9.301,18.826 9.528,18.519 9.798,18.249C10.527,17.521 11.514,17.112 12.544,17.112C28.786,17.112 91.191,17.112 107.366,17.112C108.387,17.112 109.365,17.517 110.087,18.239C110.809,18.96 111.214,19.939 111.214,20.959L111.214,89.53L104.3,82.04L104.3,27.522C104.3,22.895 100.317,19.138 95.411,19.138C95.208,19.138 95.006,19.144 94.806,19.157L9.124,19.157Z" style="fill:rgb(171,243,255);"/>
    <path d="M9.124,19.157L94.806,19.157C95.006,19.144 95.208,19.138 95.411,19.138C100.317,19.138 104.3,22.895 104.3,27.522L104.3,82.04L86.273,62.512C86.273,62.512 85.584,61.813 84.737,60.953C82.994,59.184 80.172,59.085 78.31,60.729C77.89,61.099 77.604,61.351 77.604,61.351C77.604,61.351 75.054,63.568 72.825,65.506C71.006,67.088 68.259,66.938 66.623,65.166L54.998,52.573L54.998,31.256C54.998,26.628 51.242,22.872 46.615,22.872C46.422,22.872 46.232,22.878 46.043,22.891L8.661,22.891L8.661,20.994C8.661,20.347 8.823,19.717 9.124,19.157ZM89.879,25.831C96.955,25.831 102.699,31.575 102.699,38.651C102.699,45.727 96.955,51.472 89.879,51.472C82.803,51.472 77.058,45.727 77.058,38.651C77.058,31.575 82.803,25.831 89.879,25.831Z" style="fill:white;"/>
    <path d="M8.661,22.891L46.043,22.891C46.232,22.878 46.422,22.872 46.615,22.872C51.242,22.872 54.998,26.628 54.998,31.256L54.998,52.573L51.621,48.914C51.621,48.914 51.474,48.765 51.23,48.519C50.043,47.316 48.401,46.672 46.713,46.747C45.024,46.821 43.446,47.607 42.368,48.909C40.081,51.675 37.716,54.534 37.716,54.534L8.661,89.545L8.661,22.891Z" style="fill:rgb(255,196,251);"/>
    <g transform="matrix(0.319986,0,0,0.319986,-515.977,-515.977)">
        <g transform="matrix(1,0,0,1,1300,1300)">
            <path d="M687.5,363.561C687.5,350.245 676.705,339.45 663.388,339.45C595.633,339.45 404.081,339.45 336.483,339.45C330.122,339.45 324.022,341.976 319.524,346.474C315.027,350.972 312.5,357.072 312.5,363.433L312.5,636.483C312.5,649.775 323.275,660.55 336.567,660.55L663.549,660.55C676.777,660.55 687.5,649.827 687.5,636.6C687.5,577.125 687.5,423.207 687.5,363.561ZM660.058,592.293L660.058,377.999C660.059,374.81 658.792,371.752 656.537,369.497C654.282,367.242 651.224,365.975 648.035,365.975C597.484,365.975 402.459,365.975 351.701,365.975C348.483,365.975 345.397,367.254 343.122,369.529C340.846,371.804 339.568,374.89 339.568,378.108L339.568,592.339L430.368,482.925C430.368,482.925 437.759,473.989 444.907,465.347C448.274,461.276 453.206,458.821 458.483,458.588C463.761,458.356 468.89,460.368 472.602,464.126C473.363,464.897 473.823,465.363 473.823,465.363C473.823,465.363 504.809,498.929 520.707,516.152C525.818,521.688 534.404,522.159 540.09,517.215C547.055,511.159 555.024,504.229 555.024,504.229C555.024,504.229 555.917,503.44 557.228,502.284C563.048,497.148 571.868,497.456 577.316,502.986C579.963,505.673 582.115,507.858 582.115,507.858L660.058,592.293Z"/>
        </g>
        <g transform="matrix(1,0,0,1,-1,0.75)">
            <circle cx="1894.38" cy="1732.54" r="40.066"/>
        </g>
    </g>
</svg>
